<?xml version="1.0" standalone="no"?>
<!DOCTYPE svg PUBLIC "-//W3C//DTD SVG 20010904//EN"
 "http://www.w3.org/TR/2001/REC-SVG-20010904/DTD/svg10.dtd">
<svg version="1.0" xmlns="http://www.w3.org/2000/svg"
 width="700.000000pt" height="700.000000pt" viewBox="0 0 700.000000 700.000000"
 preserveAspectRatio="xMidYMid meet">
<metadata>
Created by potrace 1.14, written by Peter Selinger 2001-2017
</metadata>
<g transform="translate(0.000000,700.000000) scale(0.100000,-0.100000)"
fill="#000000" stroke="none">
<path d="M3349 5726 c-2 -2 -35 -7 -74 -11 -206 -19 -469 -93 -662 -186 -107
-51 -266 -153 -332 -213 -151 -137 -244 -254 -316 -399 -42 -82 -89 -211 -100
-267 -3 -14 -7 -38 -11 -53 -11 -52 -13 -81 -13 -182 -1 -116 3 -156 23 -251
31 -143 86 -263 171 -375 95 -122 297 -287 461 -375 187 -101 287 -145 474
-207 159 -54 193 -64 390 -116 589 -158 780 -226 865 -309 57 -56 62 -64 85
-131 26 -79 26 -162 0 -217 -39 -79 -141 -156 -268 -200 -97 -33 -147 -39
-337 -38 -182 0 -219 4 -332 34 -164 44 -238 93 -376 251 -62 70 -50 54 -157
214 -117 175 -222 283 -307 315 -81 31 -225 38 -318 16 -164 -39 -338 -189
-391 -339 -43 -120 -37 -280 17 -441 125 -376 482 -694 949 -846 109 -36 157
-48 335 -86 11 -2 40 -7 65 -10 25 -3 52 -7 60 -9 79 -20 606 -28 765 -12 120
13 240 29 305 42 14 3 34 7 45 9 114 22 271 75 398 135 90 42 253 134 267 150
3 3 23 19 45 36 92 68 167 143 241 242 30 40 54 75 54 79 0 4 6 15 14 23 14
17 62 109 89 171 29 67 60 171 72 239 3 19 7 37 9 40 17 27 28 320 15 410 -30
214 -144 415 -354 626 -235 236 -486 362 -1055 529 -25 8 -101 28 -170 46
-593 154 -768 215 -899 312 -86 65 -117 174 -75 263 36 77 157 158 283 191
147 37 371 39 505 4 135 -34 201 -84 461 -345 245 -246 275 -268 395 -294 71
-15 215 -12 299 6 103 23 221 84 272 141 118 131 158 343 98 522 -117 356
-418 597 -947 759 -73 22 -143 43 -155 45 -12 3 -33 8 -47 11 -14 3 -50 10
-80 15 -51 9 -70 12 -175 26 -50 7 -570 16 -576 10z"/>
</g>
</svg>
